<?xml version="1.0" encoding="UTF-8" standalone="no"?>
<!-- Created with Inkscape (http://www.inkscape.org/) -->

<svg
   width="210mm"
   height="297mm"
   viewBox="0 0 210 297"
   version="1.1"
   id="svg5"
   inkscape:version="1.1.2 (b8e25be833, 2022-02-05)"
   sodipodi:docname="logo.svg"
   xmlns:inkscape="http://www.inkscape.org/namespaces/inkscape"
   xmlns:sodipodi="http://sodipodi.sourceforge.net/DTD/sodipodi-0.dtd"
   xmlns:xlink="http://www.w3.org/1999/xlink"
   xmlns="http://www.w3.org/2000/svg"
   xmlns:svg="http://www.w3.org/2000/svg">
  <sodipodi:namedview
     id="namedview7"
     pagecolor="#ffffff"
     bordercolor="#666666"
     borderopacity="1.0"
     inkscape:pageshadow="2"
     inkscape:pageopacity="0.0"
     inkscape:pagecheckerboard="0"
     inkscape:document-units="mm"
     showgrid="false"
     inkscape:zoom="0.90583672"
     inkscape:cx="346.08886"
     inkscape:cy="247.28518"
     inkscape:window-width="1680"
     inkscape:window-height="987"
     inkscape:window-x="-8"
     inkscape:window-y="-8"
     inkscape:window-maximized="1"
     inkscape:current-layer="layer1" />
  <defs
     id="defs2">
    <linearGradient
       inkscape:collect="always"
       id="linearGradient27770">
      <stop
         style="stop-color:#5d78ff;stop-opacity:1;"
         offset="0"
         id="stop27766" />
      <stop
         style="stop-color:#5d78ff;stop-opacity:0;"
         offset="1"
         id="stop27768" />
    </linearGradient>
    <rect
       x="217.01006"
       y="101.47953"
       width="304.43858"
       height="120.21421"
       id="rect6178" />
    <filter
       inkscape:collect="always"
       style="color-interpolation-filters:sRGB"
       id="filter27726"
       x="-0.0031554974"
       y="-0.043049998"
       width="1.006311"
       height="1.0861">
      <feGaussianBlur
         inkscape:collect="always"
         stdDeviation="0.055012804"
         id="feGaussianBlur27728" />
    </filter>
    <linearGradient
       inkscape:collect="always"
       xlink:href="#linearGradient27770"
       id="linearGradient27772"
       x1="74.788341"
       y1="48.924609"
       x2="116.8939"
       y2="48.924609"
       gradientUnits="userSpaceOnUse"
       gradientTransform="translate(-10.369096,3.6510903)" />
    <linearGradient
       inkscape:collect="always"
       xlink:href="#linearGradient27770"
       id="linearGradient28195"
       x1="0"
       y1="179.96249"
       x2="359.92899"
       y2="179.96249"
       gradientUnits="userSpaceOnUse" />
    <linearGradient
       inkscape:collect="always"
       xlink:href="#linearGradient27770"
       id="linearGradient28206"
       gradientUnits="userSpaceOnUse"
       x1="0"
       y1="179.96249"
       x2="359.92899"
       y2="179.96249" />
    <linearGradient
       inkscape:collect="always"
       xlink:href="#linearGradient27770"
       id="linearGradient28208"
       gradientUnits="userSpaceOnUse"
       x1="0"
       y1="179.96249"
       x2="359.92899"
       y2="179.96249" />
    <linearGradient
       inkscape:collect="always"
       xlink:href="#linearGradient27770"
       id="linearGradient28210"
       gradientUnits="userSpaceOnUse"
       x1="0"
       y1="179.96249"
       x2="359.92899"
       y2="179.96249" />
  </defs>
  <g
     inkscape:label="Warstwa 1"
     inkscape:groupmode="layer"
     id="layer1">
    <rect
       style="display:none;fill:#5d78ff;fill-opacity:1;stroke-width:0.147254"
       id="rect20008"
       width="7.0562844"
       height="19.414463"
       x="32.969616"
       y="34.631618" />
    <rect
       style="display:none;mix-blend-mode:darken;fill:url(#linearGradient27772);fill-opacity:1;stroke-width:0.265;stroke-miterlimit:4;stroke-dasharray:none;filter:url(#filter27726)"
       id="rect23655"
       width="41.841496"
       height="3.066916"
       x="64.551277"
       y="51.04224" />
    <text
       xml:space="preserve"
       transform="matrix(0.26458333,0,0,0.31145048,-15.68894,0.16085275)"
       id="text6176"
       style="font-style:normal;font-weight:normal;font-size:64px;line-height:1.25;font-family:sans-serif;white-space:pre;shape-inside:url(#rect6178);fill:#000000;fill-opacity:1;stroke:none"><tspan
         x="217.00977"
         y="159.71248"
         id="tspan33539"><tspan
           style="font-weight:bold;-inkscape-font-specification:'sans-serif Bold'"
           id="tspan33537">Szpunar</tspan></tspan></text>
    <g
       id="XMLID_104_"
       transform="matrix(0.06855293,0,0,0.06874392,16.798608,32.028895)"
       style="fill:url(#linearGradient28195);fill-opacity:1">
      <path
         id="XMLID_105_"
         d="m 115.604,293.4 c 5.95,5.224 12.091,10.614 18.41,16.202 0.043,0.039 0.087,0.077 0.131,0.115 l 21.018,18.155 c 2.816,2.433 6.311,3.648 9.806,3.648 3.495,0 6.99,-1.217 9.807,-3.649 l 18.769,-16.216 c 17.276,12.491 38.483,19.865 61.384,19.865 57.897,0 105,-47.103 105,-105 0,-29.95 -12.607,-57.009 -32.789,-76.155 1.842,-8.121 2.789,-16.328 2.789,-24.509 0,-54.646 -42.805,-97.451 -97.449,-97.451 -24.561,0 -48.827,9.249 -67.512,25.279 C 146.28,37.652 122.013,28.405 97.452,28.405 42.806,28.406 0,71.212 0,125.857 0,191.912 45.99,232.286 115.604,293.4 Z M 254.928,151.521 c 41.355,0 75,33.646 75,75 0,41.354 -33.645,75 -75,75 -41.355,0 -75,-33.646 -75,-75 0,-41.354 33.644,-75 75,-75 z"
         style="fill:url(#linearGradient28206);fill-opacity:1" />
      <path
         id="XMLID_108_"
         d="m 231.321,260.128 c 2.929,2.93 6.768,4.394 10.606,4.394 3.839,0 7.678,-1.464 10.606,-4.394 l 45,-45 c 5.858,-5.858 5.858,-15.355 0,-21.213 -5.857,-5.858 -15.355,-5.858 -21.213,0 l -34.393,34.393 -9.394,-9.393 c -5.857,-5.858 -15.355,-5.858 -21.213,0 -5.858,5.857 -5.858,15.355 0,21.213 z"
         style="fill:url(#linearGradient28208);fill-opacity:1" />
      <path
         style="fill:url(#linearGradient28210);fill-opacity:1;stroke-width:0.552845;stroke-miterlimit:4;stroke-dasharray:none"
         d="m 88.270858,128.63409 c -13.126123,0.0166 -25.325647,11.91253 -24.367794,25.26476 -0.600888,12.92699 8.353327,23.69507 17.282666,31.97686 7.782274,7.11236 15.436819,14.47943 23.81474,20.86728 2.54058,1.31929 4.66972,-1.91032 6.59029,-3.12212 1.39934,-2.7015 4.21362,-0.36339 5.98333,0.50563 12.04443,6.46751 28.40562,1.53491 35.06233,-10.35387 6.38135,-10.31812 4.46529,-24.49118 -3.95804,-33.10586 -0.42192,-7.35541 0.57278,-16.00818 -4.90484,-21.99793 -6.61834,-9.25874 -19.70892,-12.45062 -30.03309,-7.96807 -2.77323,0.90914 -5.02401,3.12349 -7.62201,4.14952 -4.19099,-2.65782 -8.583447,-5.47763 -13.695904,-5.97579 -1.374368,-0.19283 -2.764229,-0.27297 -4.151678,-0.24041 z m 41.316252,31.83133 c 9.52008,-0.23112 18.58289,7.51577 19.08198,17.15869 0.9651,6.03365 -1.20814,12.23626 -5.7289,16.36522 -7.1771,7.39818 -20.43794,7.21801 -27.31634,-0.53797 -7.94207,-7.7772 -7.16866,-22.27189 1.80901,-28.92159 3.42212,-2.71032 7.80214,-4.10807 12.15425,-4.06435 z"
         id="path27835"
         transform="matrix(3.8595481,0,0,3.8488252,-245.04581,-465.91604)" />
    </g>
    <path
       style="fill:#5d78ff;fill-opacity:0;stroke-width:0.146274;stroke-miterlimit:4;stroke-dasharray:none"
       d="m 23.354998,34.034436 c -3.472954,0.0044 -6.700744,3.151857 -6.447313,6.684634 -0.158984,3.420266 2.210152,6.269321 4.572706,8.460544 2.05906,1.881812 4.084325,3.831016 6.300983,5.521135 0.672195,0.349062 1.23553,-0.505439 1.743681,-0.826061 0.370242,-0.714772 1.114853,-0.09615 1.583089,0.133781 3.186756,1.711195 7.515654,0.406112 9.276908,-2.739461 1.688399,-2.730003 1.181442,-6.479958 -1.047231,-8.759259 -0.111633,-1.946119 0.151548,-4.235498 -1.297739,-5.820286 -1.751102,-2.449708 -5.214652,-3.294226 -7.946255,-2.108218 -0.73375,0.240543 -1.329269,0.826423 -2.016657,1.097894 -1.108866,-0.703215 -2.271037,-1.44929 -3.623708,-1.581095 -0.363635,-0.05102 -0.731369,-0.07222 -1.098464,-0.06361 z m 10.931591,8.422039 c 2.518855,-0.06115 4.916723,1.988548 5.048774,4.539904 0.255349,1.596403 -0.319654,3.23751 -1.515772,4.329964 -1.898941,1.957435 -5.407538,1.909765 -7.227448,-0.142338 -2.101339,-2.057717 -1.896708,-5.892771 0.478634,-7.652171 0.905436,-0.717105 2.064316,-1.086926 3.215812,-1.075359 z"
       id="path27874" />
  </g>
</svg>
