<?xml version="1.0" encoding="UTF-8" standalone="no"?>
<!-- Created with Inkscape (http://www.inkscape.org/) -->

<svg
   width="210mm"
   height="297mm"
   viewBox="0 0 210 297"
   version="1.1"
   id="svg5"
   inkscape:version="1.1.2 (b8e25be833, 2022-02-05)"
   sodipodi:docname="logo.svg"
   xmlns:inkscape="http://www.inkscape.org/namespaces/inkscape"
   xmlns:sodipodi="http://sodipodi.sourceforge.net/DTD/sodipodi-0.dtd"
   xmlns:xlink="http://www.w3.org/1999/xlink"
   xmlns="http://www.w3.org/2000/svg"
   xmlns:svg="http://www.w3.org/2000/svg">
  <sodipodi:namedview
     id="namedview7"
     pagecolor="#ffffff"
     bordercolor="#666666"
     borderopacity="1.0"
     inkscape:pageshadow="2"
     inkscape:pageopacity="0.0"
     inkscape:pagecheckerboard="0"
     inkscape:document-units="mm"
     showgrid="false"
     inkscape:zoom="1.8116734"
     inkscape:cx="188.22377"
     inkscape:cy="226.86208"
     inkscape:window-width="1680"
     inkscape:window-height="987"
     inkscape:window-x="-8"
     inkscape:window-y="-8"
     inkscape:window-maximized="1"
     inkscape:current-layer="layer1" />
  <defs
     id="defs2">
    <linearGradient
       inkscape:collect="always"
       id="linearGradient27770">
      <stop
         style="stop-color:#5d78ff;stop-opacity:1;"
         offset="0"
         id="stop27766" />
      <stop
         style="stop-color:#5d78ff;stop-opacity:0;"
         offset="1"
         id="stop27768" />
    </linearGradient>
    <rect
       x="217.01006"
       y="101.47953"
       width="304.43858"
       height="120.21421"
       id="rect6178" />
    <filter
       inkscape:collect="always"
       style="color-interpolation-filters:sRGB"
       id="filter27726"
       x="-0.0031554974"
       y="-0.043049998"
       width="1.006311"
       height="1.0861">
      <feGaussianBlur
         inkscape:collect="always"
         stdDeviation="0.055012804"
         id="feGaussianBlur27728" />
    </filter>
    <linearGradient
       inkscape:collect="always"
       xlink:href="#linearGradient27770"
       id="linearGradient27772"
       x1="74.788341"
       y1="48.924609"
       x2="116.8939"
       y2="48.924609"
       gradientUnits="userSpaceOnUse"
       gradientTransform="translate(-10.369096,3.6510903)" />
  </defs>
  <g
     inkscape:label="Warstwa 1"
     inkscape:groupmode="layer"
     id="layer1">
    <rect
       style="display:none;fill:#5d78ff;fill-opacity:1;stroke-width:0.147254"
       id="rect20008"
       width="7.0562844"
       height="19.414463"
       x="32.969616"
       y="34.631618" />
    <rect
       style="display:none;mix-blend-mode:darken;fill:url(#linearGradient27772);fill-opacity:1;stroke-width:0.265;stroke-miterlimit:4;stroke-dasharray:none;filter:url(#filter27726)"
       id="rect23655"
       width="41.841496"
       height="3.066916"
       x="64.551277"
       y="51.04224" />
    <text
       xml:space="preserve"
       transform="matrix(0.26458333,0,0,0.31145048,-14.228504,0.7450272)"
       id="text6176"
       style="font-style:normal;font-weight:normal;font-size:64px;line-height:1.25;font-family:sans-serif;white-space:pre;shape-inside:url(#rect6178);fill:#282f49;fill-opacity:0.99215686;stroke:none"><tspan
         x="217.00977"
         y="159.71248"
         id="tspan14001"><tspan
           style="font-weight:bold;-inkscape-font-specification:'sans-serif Bold'"
           id="tspan13999">Szpunar</tspan></tspan></text>
    <g
       id="g136"
       transform="matrix(0.20437854,0,0,0.20437854,22.016654,13.867841)"
       inkscape:label="g136">
      <g
         id="g6"
         transform="matrix(0.27853986,0,0,0.27853986,-39.400872,61.953395)">
        <circle
           style="fill:#88c5cc"
           cx="256"
           cy="256"
           r="256"
           id="circle2" />
        <circle
           style="fill:#88c5cc"
           cx="256"
           cy="256"
           r="256"
           id="circle4" />
      </g>
      <g
         id="g12"
         transform="matrix(0.26458333,0,0,0.26458333,-39.400872,61.953395)">
        <path
           style="opacity:0.2;fill:#f5f5f5;enable-background:new"
           d="m 0,256 c 0,6.228 0.3,12.372 0.744,18.488 L 288,164 V 112 L 89.968,61.224 C 34.936,108.176 0,177.992 0,256 Z"
           id="path8" />
        <path
           style="opacity:0.2;fill:#f5f5f5;enable-background:new"
           d="M 454.2,94 384,112 v 52 l 124.104,47.736 C 500.408,167.572 481.44,127.288 454.2,94 Z"
           id="path10" />
      </g>
      <path
         style="fill:#2179a6;stroke-width:0.264583"
         d="m 28.33246,197.42006 c 14.834659,0 28.545367,-4.78367 39.702317,-12.87145 -3.335867,-0.72072 -5.83565,-3.68617 -5.83565,-7.23688 0,-0.58526 -0.473075,-1.05834 -1.058334,-1.05834 -0.585258,0 -1.058333,0.47308 -1.058333,1.05834 0,4.09151 -3.316817,7.40833 -7.408333,7.40833 -4.091517,0 -7.408333,-3.31682 -7.408333,-7.40833 0,-0.58526 -0.473075,-1.05834 -1.058334,-1.05834 -0.585258,0 -1.058333,0.47308 -1.058333,1.05834 0,4.09151 -3.316817,7.40833 -7.408333,7.40833 -4.091517,0 -7.408334,-3.31682 -7.408334,-7.40833 0,-0.58526 -0.473075,-1.05834 -1.058333,-1.05834 -0.585258,0 -1.058333,0.47308 -1.058333,1.05834 0,4.09151 -3.316817,7.40833 -7.408333,7.40833 -4.091517,0 -7.408334,-3.31682 -7.408334,-7.40833 0,-0.58526 -0.473075,-1.05834 -1.058333,-1.05834 -0.5852583,0 -1.0583333,0.47308 -1.0583333,1.05834 0,4.09151 -3.3168166,7.40833 -7.4083332,7.40833 -4.0915166,0 -7.4083333,-3.31682 -7.4083333,-7.40833 0,-0.58526 -0.473075,-1.05834 -1.0583333,-1.05834 -0.5852583,0 -1.0583333,0.47308 -1.0583333,1.05834 0,3.01625 -1.8044583,5.60493 -4.3889086,6.76169 11.27442518,8.38412 25.242308,13.34664 40.372241,13.34664 z"
         id="path14" />
      <polygon
         style="fill:#e6e6e6"
         points="288,180 384,180 420,444 252,444 "
         id="polygon16"
         transform="matrix(0.26458333,0,0,0.26458333,-39.400872,61.953395)" />
      <rect
         x="36.799126"
         y="91.586731"
         style="fill:#ffd464;stroke-width:0.264583"
         width="25.4"
         height="13.758333"
         id="rect18" />
      <polygon
         style="fill:#f5f5f5"
         points="400,112 272,112 336,64 "
         id="polygon20"
         transform="matrix(0.26458333,0,0,0.26458333,-39.400872,61.953395)" />
      <polygon
         style="fill:#e6e6e6"
         points="336,64 336,112 400,112 "
         id="polygon22"
         transform="matrix(0.26458333,0,0,0.26458333,-39.400872,61.953395)" />
      <path
         style="fill:#ffd464;stroke-width:0.264583"
         d="m 73.383593,180.2486 c -0.388408,-0.49318 -0.985308,-0.82021 -1.659466,-0.82021 h -44.45 c -1.164166,0 -2.116666,0.9525 -2.116666,2.11667 v 2.11667 c 0,1.16416 0.9525,2.11666 2.116666,2.11666 h 39.032391 c 2.483909,-1.68486 4.842934,-3.538 7.077075,-5.52979 z"
         id="path24" />
      <path
         style="fill:#f5f5f5;stroke-width:0.264583"
         d="m 66.43246,107.46173 c 0,1.16416 -0.9525,2.11666 -2.116667,2.11666 H 34.68246 c -1.164166,0 -2.116666,-0.9525 -2.116666,-2.11666 v 0 c 0,-1.16417 0.9525,-2.11667 2.116666,-2.11667 h 29.633333 c 1.164167,0 2.116667,0.9525 2.116667,2.11667 z"
         id="path26" />
      <g
         id="g34"
         transform="matrix(0.26458333,0,0,0.26458333,-39.400872,61.953395)">
        <polygon
           style="fill:#cc584c"
           points="271.636,300 400.364,300 394.912,260 277.088,260 "
           id="polygon28" />
        <polygon
           style="fill:#cc584c"
           points="402.548,316 269.452,316 264,356 408,356 "
           id="polygon30" />
        <polygon
           style="fill:#cc584c"
           points="279.272,244 392.728,244 387.272,204 284.728,204 "
           id="polygon32" />
      </g>
      <polygon
         style="fill:#cccccc"
         points="288,180 287.452,184 384.548,184 384,180 "
         id="polygon36"
         transform="matrix(0.26458333,0,0,0.26458333,-39.400872,61.953395)" />
      <rect
         x="36.799126"
         y="91.586731"
         style="fill:#e6bf5a;stroke-width:0.264583"
         width="25.4"
         height="1.0583333"
         id="rect38" />
      <path
         style="fill:#2179a6;stroke-width:0.264583"
         d="m 28.33246,197.42006 c 16.646525,0 31.882292,-6.01768 43.676358,-15.98083 -0.180975,-0.63924 -0.284691,-1.31234 -0.284691,-2.01084 0,-0.58525 -0.473075,-1.05833 -1.058334,-1.05833 -0.585258,0 -1.058333,0.47308 -1.058333,1.05833 0,4.09152 -3.316817,7.40834 -7.408333,7.40834 -4.091517,0 -7.408334,-3.31682 -7.408334,-7.40834 0,-0.58525 -0.473075,-1.05833 -1.058333,-1.05833 -0.585258,0 -1.058333,0.47308 -1.058333,1.05833 0,4.09152 -3.316817,7.40834 -7.408333,7.40834 -4.091517,0 -7.408334,-3.31682 -7.408334,-7.40834 0,-0.58525 -0.473075,-1.05833 -1.058333,-1.05833 -0.585258,0 -1.058333,0.47308 -1.058333,1.05833 0,4.09152 -3.316817,7.40834 -7.408334,7.40834 -4.091516,0 -7.408333,-3.31682 -7.408333,-7.40834 0,-0.58525 -0.473075,-1.05833 -1.058333,-1.05833 -0.585258,0 -1.058333,0.47308 -1.058333,1.05833 0,4.09152 -3.316817,7.40834 -7.408334,7.40834 -4.0915163,0 -7.4083329,-3.31682 -7.4083329,-7.40834 0,-0.58525 -0.473075,-1.05833 -1.0583333,-1.05833 -0.5852583,0 -1.0583333,0.47308 -1.0583333,1.05833 0,4.09152 -3.3168166,7.40834 -7.4083333,7.40834 -4.0915166,0 -7.4083332,-3.31682 -7.4083332,-7.40834 0,-0.58525 -0.473075,-1.05833 -1.058333,-1.05833 -0.585259,0 -1.058334,0.47308 -1.058334,1.05833 0,0.6985 -0.103716,1.3716 -0.284691,2.01084 11.7940662,9.96315 27.029833,15.98083 43.676357,15.98083 z"
         id="path40" />
      <path
         style="fill:#2995cc;stroke-width:0.264583"
         d="m 28.33246,197.42006 c 13.884275,0 26.789592,-4.18465 37.533792,-11.35274 -0.968375,-1.25095 -1.550459,-2.81728 -1.550459,-4.52226 0,-0.58526 -0.473075,-1.05833 -1.058333,-1.05833 -0.585258,0 -1.058333,0.47307 -1.058333,1.05833 0,4.09152 -3.316817,7.40833 -7.408334,7.40833 -4.091516,0 -7.408333,-3.31681 -7.408333,-7.40833 0,-0.58526 -0.473075,-1.05833 -1.058333,-1.05833 -0.585258,0 -1.058333,0.47307 -1.058333,1.05833 0,4.09152 -3.316817,7.40833 -7.408334,7.40833 -4.091516,0 -7.408333,-3.31681 -7.408333,-7.40833 0,-0.58526 -0.473075,-1.05833 -1.058333,-1.05833 -0.585259,0 -1.058334,0.47307 -1.058334,1.05833 0,4.09152 -3.316816,7.40833 -7.408333,7.40833 -4.091516,0 -7.408333,-3.31681 -7.408333,-7.40833 0,-0.58526 -0.473075,-1.05833 -1.058333,-1.05833 -0.585259,0 -1.058334,0.47307 -1.058334,1.05833 0,4.09152 -3.3168163,7.40833 -7.4083329,7.40833 -4.0915166,0 -7.4083332,-3.31681 -7.4083332,-7.40833 0,-0.58526 -0.473075,-1.05833 -1.0583333,-1.05833 -0.5852584,0 -1.0583334,0.47307 -1.0583334,1.05833 0,2.12196 -0.8974666,4.03119 -2.3272749,5.38163 10.4722082,6.63575 22.8790497,10.49337 36.1939407,10.49337 z"
         id="path42" />
      <circle
         style="fill:#ffe399;stroke-width:0.264583"
         cx="49.499126"
         cy="98.465897"
         r="4.2333331"
         id="circle44" />
      <circle
         style="fill:#f5f5f5;stroke-width:0.264583"
         cx="49.499126"
         cy="98.465897"
         r="2.1166666"
         id="circle46" />
      <g
         id="g52"
         transform="matrix(0.26458333,0,0,0.26458333,-39.400872,61.953395)">
        <rect
           x="328"
           y="112"
           style="fill:#cca950"
           width="16"
           height="12"
           id="rect48" />
        <rect
           x="328"
           y="152"
           style="fill:#cca950"
           width="16"
           height="12"
           id="rect50" />
      </g>
    </g>
    <path
       style="fill:#5d78ff;fill-opacity:0;stroke-width:0.146274;stroke-miterlimit:4;stroke-dasharray:none"
       d="m 24.815434,34.61861 c -3.472954,0.0044 -6.700744,3.151857 -6.447313,6.684634 -0.158984,3.420266 2.210152,6.269321 4.572706,8.460544 2.05906,1.881812 4.084325,3.831016 6.300983,5.521135 0.672195,0.349062 1.23553,-0.505439 1.743681,-0.826061 0.370242,-0.714772 1.114853,-0.09615 1.583089,0.133781 3.186756,1.711195 7.515654,0.406112 9.276908,-2.739461 1.688399,-2.730003 1.181442,-6.479958 -1.047231,-8.759259 -0.111633,-1.946119 0.151548,-4.235498 -1.297739,-5.820286 -1.751102,-2.449708 -5.214652,-3.294226 -7.946255,-2.108218 -0.73375,0.240543 -1.329269,0.826423 -2.016657,1.097894 -1.108866,-0.703215 -2.271037,-1.44929 -3.623708,-1.581095 -0.363635,-0.05102 -0.731369,-0.07222 -1.098464,-0.06361 z m 10.931591,8.422039 c 2.518855,-0.06115 4.916723,1.988548 5.048774,4.539904 0.255349,1.596403 -0.319654,3.23751 -1.515772,4.329964 -1.898941,1.957435 -5.407538,1.909765 -7.227448,-0.142338 -2.101339,-2.057717 -1.896708,-5.892771 0.478634,-7.652171 0.905436,-0.717105 2.064316,-1.086926 3.215812,-1.075359 z"
       id="path27874" />
  </g>
</svg>
