<?xml version="1.0" encoding="UTF-8" standalone="no"?>
<!-- Created with Inkscape (http://www.inkscape.org/) -->

<svg
   width="48.0px"
   height="48.0px"
   viewBox="0 0 48.0 48.0"
   version="1.1"
   id="SVGRoot"
   sodipodi:docname="health2.svg"
   inkscape:version="1.1.2 (b8e25be833, 2022-02-05)"
   xmlns:inkscape="http://www.inkscape.org/namespaces/inkscape"
   xmlns:sodipodi="http://sodipodi.sourceforge.net/DTD/sodipodi-0.dtd"
   xmlns="http://www.w3.org/2000/svg"
   xmlns:svg="http://www.w3.org/2000/svg">
  <sodipodi:namedview
     id="namedview36"
     pagecolor="#ffffff"
     bordercolor="#666666"
     borderopacity="1.0"
     inkscape:pageshadow="2"
     inkscape:pageopacity="0.0"
     inkscape:pagecheckerboard="0"
     inkscape:document-units="px"
     showgrid="true"
     inkscape:zoom="7.2466938"
     inkscape:cx="21.113077"
     inkscape:cy="31.876606"
     inkscape:window-width="1680"
     inkscape:window-height="987"
     inkscape:window-x="-8"
     inkscape:window-y="-8"
     inkscape:window-maximized="1"
     inkscape:current-layer="layer1">
    <inkscape:grid
       type="xygrid"
       id="grid42" />
  </sodipodi:namedview>
  <defs
     id="defs31" />
  <g
     inkscape:label="Warstwa 1"
     inkscape:groupmode="layer"
     id="layer1"
     style="display:inline">
    <g
       id="g6"
       transform="scale(2)">
      <path
         fill="none"
         d="M 0,0 H 24 V 24 H 0 Z"
         id="path2" />
      <path
         d="m 11,2 c 4.068,0 7.426,3.036 7.934,6.965 l 2.25,3.539 c 0.148,0.233 0.118,0.58 -0.225,0.728 L 19,14.07 V 17 c 0,1.105 -0.895,2 -2,2 H 15.001 L 15,22 H 6 V 18.306 C 6,17.126 5.564,16.009 4.756,15.001 3.657,13.631 3,11.892 3,10 3,5.582 6.582,2 11,2 Z m 0,2 C 7.686,4 5,6.686 5,10 5,11.385 5.468,12.693 6.316,13.75 7.41,15.114 8,16.667 8,18.306 V 20 h 5 l 0.002,-3 H 17 V 12.752 L 18.55,12.088 17.007,9.663 16.95,9.221 C 16.566,6.251 14.024,4 11,4 Z m -0.53,3.763 0.53,0.53 0.53,-0.53 c 0.684,-0.684 1.792,-0.684 2.475,0 0.684,0.683 0.684,1.791 0,2.474 L 11,13.243 7.995,10.237 c -0.684,-0.683 -0.684,-1.791 0,-2.474 0.683,-0.684 1.791,-0.684 2.475,0 z"
         id="path4" />
    </g>
    <path
       style="fill:#5d78ff;stroke:none;stroke-width:0.137994;fill-opacity:0.97647059"
       d="M 21.853716,3.4301742 C 15.072063,3.2905254 8.6605167,7.9889845 6.404591,14.326846 4.4412962,19.504032 5.3721907,25.626965 8.7596521,30.003985 c 1.5134799,1.940187 2.6962879,4.291284 2.5315959,6.815338 0.05587,2.395052 -0.05177,4.811051 0.06051,7.19278 0.345498,0.98847 1.656252,0.419815 2.447642,0.56992 5.422452,-0.0308 10.86615,0.06161 16.275316,-0.04622 0.98847,-0.345497 0.419815,-1.656252 0.569921,-2.447642 0,-1.146625 0,-2.293251 0,-3.439876 1.966629,-0.132182 4.235992,0.398508 5.93913,-0.866775 1.176025,-0.870651 2.045918,-2.18883 2.009538,-3.693495 0.09648,-1.849155 0.03811,-3.70216 0.05498,-5.552909 1.412605,-0.724403 3.128617,-1.039518 4.276465,-2.192002 0.726409,-1.080566 -0.48569,-2.122083 -0.929864,-3.039481 C 40.831921,21.275342 39.298349,19.432088 38.420539,17.255714 37.429108,11.613536 33.408284,6.6132385 28.053742,4.5395163 26.086851,3.7402278 23.978939,3.3380869 21.853716,3.4301742 Z m 0.176266,5.2758435 c 4.659501,-0.1603105 9.111319,3.0168413 10.635237,7.3681233 0.625156,1.477362 0.468941,3.203503 1.463222,4.530891 0.635654,1.104148 1.450321,2.208533 2.011963,3.290025 -0.869783,0.534547 -2.124686,0.627606 -2.709651,1.480022 -0.108004,2.658669 -0.01518,5.34154 -0.04619,8.009488 -2.475263,0.03075 -4.971745,-0.06152 -7.43373,0.04622 -0.98847,0.345497 -0.419815,1.656252 -0.56992,2.447642 0,1.146625 0,2.293251 0,3.439876 -2.932731,0 -5.865462,0 -8.798193,0 -0.117226,-2.648464 0.196561,-5.434333 -0.976951,-7.907786 -1.115926,-3.19442 -4.05301,-5.460107 -4.671907,-8.866297 C 9.7544208,17.698928 12.192141,12.262983 16.638568,9.9805748 18.284364,9.0656781 20.152102,8.657458 22.029982,8.7060177 Z"
       id="path1663" />
    <path
       style="fill:#5d78ff;fill-opacity:0.976471;stroke:none;stroke-width:0.137994"
       d="m 25.552062,13.911247 c -1.379726,0.02149 -2.642646,0.787566 -3.543642,1.793383 -1.004606,-1.087593 -2.379583,-1.94451 -3.918274,-1.763466 -2.487057,0.08204 -4.335313,2.917836 -3.559813,5.254821 0.44723,1.354311 1.749291,2.186498 2.619786,3.256819 1.489705,1.488032 2.937826,3.046439 4.486077,4.457319 0.943143,0.457565 1.469417,-0.872475 2.135618,-1.325522 1.805925,-1.94104 3.944243,-3.620607 5.434123,-5.831789 0.878347,-1.668023 0.348132,-3.8709 -1.165941,-4.990692 -0.697712,-0.562472 -1.590637,-0.873969 -2.487934,-0.850873 z"
       id="path1702" />
  </g>
</svg>
