<?xml version="1.0" encoding="UTF-8" standalone="no"?>
<svg
   version="1.1"
   id="Icons"
   x="0px"
   y="0px"
   viewBox="0 0 32 32"
   style="enable-background:new 0 0 32 32;"
   xml:space="preserve"
   sodipodi:docname="health3.svg"
   inkscape:version="1.1.2 (b8e25be833, 2022-02-05)"
   xmlns:inkscape="http://www.inkscape.org/namespaces/inkscape"
   xmlns:sodipodi="http://sodipodi.sourceforge.net/DTD/sodipodi-0.dtd"
   xmlns="http://www.w3.org/2000/svg"
   xmlns:svg="http://www.w3.org/2000/svg"><defs
   id="defs11" /><sodipodi:namedview
   id="namedview9"
   pagecolor="#ffffff"
   bordercolor="#666666"
   borderopacity="1.0"
   inkscape:pageshadow="2"
   inkscape:pageopacity="0.0"
   inkscape:pagecheckerboard="0"
   showgrid="false"
   inkscape:zoom="5.6171875"
   inkscape:cx="32.934631"
   inkscape:cy="59.638387"
   inkscape:window-width="1680"
   inkscape:window-height="987"
   inkscape:window-x="-8"
   inkscape:window-y="-8"
   inkscape:window-maximized="1"
   inkscape:current-layer="Icons" />
<style
   type="text/css"
   id="style2">
	.st0{fill:none;stroke:#000000;stroke-width:2;stroke-linecap:round;stroke-linejoin:round;stroke-miterlimit:10;}
</style>
<path
   d="m 49.478877,26.631068 c -0.342246,-0.466019 -0.855615,-0.776699 -1.540107,-0.776699 -3.764706,0 -7.358289,1.553398 -9.582888,4.349514 l -1.540107,1.864078 c -1.882353,2.019418 -4.791443,3.106796 -7.700534,3.106796 h -5.13369 c -1.026738,0 -1.71123,-0.621359 -1.71123,-1.553398 0,-0.932039 0.684492,-1.553398 1.71123,-1.553398 h 3.251337 c 2.737968,0 5.304813,-2.019417 5.304813,-4.504854 0,0 0,-0.15534 0,-0.15534 0,-0.776699 -0.855615,-1.553398 -1.71123,-1.553398 H 20.387968 c -6.160428,0 -11.1229947,2.485437 -13.8609627,6.524272 l -4.6203208,6.524272 c -0.342246,0.466019 -0.342246,1.087378 0,1.553398 l 5.1336898,7.76699 c 0.171123,0.31068 0.684492,0.621359 1.026738,0.776699 0.171123,0 0.171123,0 0.342246,0 0.342246,0 0.684492,-0.15534 1.026738,-0.31068 6.5026737,-3.883495 14.0320857,-5.902912 21.7326207,-5.902912 5.647058,0 10.780748,-2.796117 13.518716,-7.300971 l 4.620321,-7.456311 C 49.65,27.718447 49.65,27.097087 49.478877,26.631068 Z"
   id="path4"
   style="stroke-width:1.63041" />
<path
   d="m 20.387968,22.747573 c 0,0 0,0 0,0 h 10.438503 c 2.737968,0 5.133689,2.019417 5.133689,4.504854 v 0.31068 c 0,0 0,0 0,0 l 10.609626,-9.941748 c 4.106952,-3.883495 4.106952,-9.9417473 0,-13.8252425 C 44.51631,2.0873786 41.949465,1 39.211497,1 36.473529,1 33.735561,2.0873786 31.682086,3.9514563 l -0.855615,0.776699 -0.855615,-0.776699 C 27.91738,2.0873786 25.350535,1 22.441444,1 c -2.737968,0 -5.304813,1.0873786 -7.358289,2.9514563 -4.106952,3.8834952 -4.106952,9.9417477 0,13.8252427 z m 1.882353,-9.320389 h 2.737968 l 2.909091,-2.640776 c 0.342246,-0.31068 0.855615,-0.46602 1.540107,-0.46602 0.513369,0.15534 1.026738,0.46602 1.197861,0.776699 l 1.71123,3.106796 2.053475,-4.5048539 c 0.171123,-0.4660194 0.684492,-0.9320388 1.368984,-0.9320388 0.684492,0 1.197861,0.1553398 1.540107,0.6213592 l 3.42246,4.6601945 c 0.513369,0.776699 0.342246,1.708738 -0.513369,2.174757 -0.855615,0.466019 -1.882353,0.31068 -2.395722,-0.466019 l -1.540107,-2.174758 -2.224599,4.970874 c -0.171123,0.621359 -0.855614,1.087379 -1.540106,1.087379 0,0 0,0 0,0 -0.684492,0 -1.197861,-0.31068 -1.540107,-0.932039 l -2.395722,-4.349515 -1.71123,1.553398 c -0.342246,0.46602 -0.684492,0.62136 -1.197861,0.62136 h -3.42246 c -1.026738,0 -1.71123,-0.62136 -1.71123,-1.553398 0,-0.932039 0.684492,-1.553399 1.71123,-1.553399 z"
   id="path6"
   style="stroke-width:1.63041" />
</svg>
