<?xml version="1.0" encoding="UTF-8" standalone="no"?>
<!-- Created with Inkscape (http://www.inkscape.org/) -->

<svg
   width="64.0px"
   height="64.0px"
   viewBox="0 0 64.0 64.0"
   version="1.1"
   id="SVGRoot"
   sodipodi:docname="health1.svg"
   inkscape:version="1.1.2 (b8e25be833, 2022-02-05)"
   xmlns:inkscape="http://www.inkscape.org/namespaces/inkscape"
   xmlns:sodipodi="http://sodipodi.sourceforge.net/DTD/sodipodi-0.dtd"
   xmlns="http://www.w3.org/2000/svg"
   xmlns:svg="http://www.w3.org/2000/svg">
  <sodipodi:namedview
     id="namedview34"
     pagecolor="#ffffff"
     bordercolor="#666666"
     borderopacity="1.0"
     inkscape:pageshadow="2"
     inkscape:pageopacity="0.0"
     inkscape:pagecheckerboard="0"
     inkscape:document-units="px"
     showgrid="true"
     inkscape:zoom="2.5620932"
     inkscape:cx="53.471904"
     inkscape:cy="37.079058"
     inkscape:window-width="1680"
     inkscape:window-height="987"
     inkscape:window-x="-8"
     inkscape:window-y="-8"
     inkscape:window-maximized="1"
     inkscape:current-layer="layer1">
    <inkscape:grid
       type="xygrid"
       id="grid40" />
  </sodipodi:namedview>
  <defs
     id="defs29" />
  <g
     inkscape:label="Warstwa 1"
     inkscape:groupmode="layer"
     id="layer1">
    <path
       d="m 63.39037,35.589 c -0.45634,-0.62136 -1.14083,-1.0356 -2.05348,-1.0356 -5.01962,0 -9.81106,2.0712 -12.77719,5.79935 l -2.05348,2.48544 c -2.5098,2.69256 -6.38859,4.1424 -10.26737,4.1424 h -6.84492 c -1.36899,0 -2.28164,-0.82848 -2.28164,-2.0712 0,-1.24272 0.91265,-2.0712 2.28164,-2.0712 h 4.33512 c 3.65062,0 7.07308,-2.69256 7.07308,-6.00647 0,0 0,-0.20712 0,-0.20712 0,-1.0356 -1.14082,-2.0712 -2.28164,-2.0712 h -13.918 c -8.21391,0 -14.83067,3.31392 -18.48128,8.69903 l -6.16044,8.69902 c -0.45632,0.62136 -0.45632,1.44984 0,2.0712 l 6.84492,10.35599 c 0.22817,0.41424 0.91267,0.82848 1.36899,1.0356 0.22817,0 0.22817,0 0.45633,0 0.45632,0 0.91265,-0.20712 1.36899,-0.41424 8.67022,-5.178 18.70944,-7.87055 28.97682,-7.87055 7.5294,0 14.37432,-3.72816 18.02495,-9.73462 l 6.16042,-9.94175 c 0.45634,-0.41424 0.45634,-1.24272 0.22818,-1.86408 z"
       id="path4"
       style="stroke-width:2.17389;fill:#5d78ff;fill-opacity:0.97647059" />
    <path
       d="m 24.60249,30.411 c 0,0 0,0 0,0 h 13.918 c 3.65062,0 6.84492,2.69256 6.84492,6.00648 v 0.41424 c 0,0 0,0 0,0 L 59.51158,23.57605 c 5.47593,-5.178 5.47593,-13.25566 0,-18.43365 -2.73797,-2.27832 -6.16044,-3.72816 -9.81105,-3.72816 -3.65063,0 -7.30126,1.44984 -10.03922,3.93528 l -1.14082,1.0356 -1.14082,-1.0356 C 34.6417,2.86408 31.21924,1.41424 27.34045,1.41424 c -3.65061,0 -7.07308,1.44984 -9.81105,3.93528 -5.47594,5.17799 -5.47594,13.25565 0,18.43365 z m 2.5098,-12.42719 h 3.65063 l 3.87878,-3.52102 c 0.45633,-0.41424 1.14081,-0.62136 2.05348,-0.62136 0.68449,0.20712 1.36897,0.62136 1.59715,1.0356 l 2.28164,4.14238 2.73796,-6.00646 c 0.22817,-0.62136 0.91265,-1.24272 1.82532,-1.24272 0.91265,0 1.59714,0.20712 2.05346,0.82848 l 4.56328,6.21358 c 0.6845,1.0356 0.45634,2.27832 -0.68449,2.89968 -1.14081,0.62136 -2.5098,0.41424 -3.19429,-0.62136 l -2.05347,-2.89968 -2.96613,6.62784 c -0.22818,0.82848 -1.14083,1.44984 -2.05348,1.44984 0,0 0,0 0,0 -0.91266,0 -1.59715,-0.41424 -2.05348,-1.24272 l -3.1943,-5.79936 -2.28164,2.0712 c -0.45632,0.62136 -0.91265,0.82848 -1.59714,0.82848 h -4.56328 c -1.36899,0 -2.28164,-0.82848 -2.28164,-2.0712 0,-1.24272 0.91265,-2.0712 2.28164,-2.0712 z"
       id="path6"
       style="stroke-width:2.17389;fill:#5d78ff;fill-opacity:0.97647059" />
  </g>
</svg>
