<?xml version="1.0" encoding="UTF-8" standalone="no"?>
<!-- Uploaded to SVGRepo https://www.svgrepo.com -->

<svg
   version="1.1"
   id="Layer_1"
   x="0px"
   y="0px"
   width="85"
   height="62.738079"
   viewBox="0 0 85 62.738079"
   enable-background="new 0 0 256 190"
   xml:space="preserve"
   sodipodi:docname="life-coach.svg"
   inkscape:version="1.2.1 (9c6d41e4, 2022-07-14)"
   xmlns:inkscape="http://www.inkscape.org/namespaces/inkscape"
   xmlns:sodipodi="http://sodipodi.sourceforge.net/DTD/sodipodi-0.dtd"
   xmlns="http://www.w3.org/2000/svg"
   xmlns:svg="http://www.w3.org/2000/svg"><defs
   id="defs13624" /><sodipodi:namedview
   id="namedview13622"
   pagecolor="#ffffff"
   bordercolor="#000000"
   borderopacity="0.25"
   inkscape:showpageshadow="2"
   inkscape:pageopacity="0.0"
   inkscape:pagecheckerboard="0"
   inkscape:deskcolor="#d1d1d1"
   showgrid="false"
   inkscape:zoom="1.2421053"
   inkscape:cx="-3.6228814"
   inkscape:cy="92.584746"
   inkscape:window-width="1280"
   inkscape:window-height="680"
   inkscape:window-x="0"
   inkscape:window-y="25"
   inkscape:window-maximized="0"
   inkscape:current-layer="Layer_1" />
<path
   d="M 15.556373,8.73712 C 15.556373,3.9005543 19.425895,0 24.293493,0 c 4.836566,0 8.737119,3.9005543 8.737119,8.73712 -0.03102,4.867935 -3.931584,8.737122 -8.737119,8.737122 -4.836566,0 -8.73712,-3.900556 -8.73712,-8.737122 z M 63.750009,46.210302 H 47.896838 V 32.04364 c 0,-6.901525 -6.031286,-12.480155 -12.817456,-12.480155 H 13.829388 c -7.4503143,0 -13.83273263,6.455951 -13.829359726197,12.817456 V 58.353157 C -0.00874173,61.231349 2.0241744,62.734364 4.0476459,62.738074 6.076177,62.741774 8.0952638,61.238771 8.0952638,58.353157 V 33.055545 H 10.793676 V 62.738074 H 37.103191 V 33.055545 h 2.698412 l 0.02732,16.989875 c -0.01787,2.944306 1.801866,4.198055 3.682996,4.260119 h 20.238085 c 5.519264,0 5.519264,-8.095237 0,-8.095237 z M 85,26.228902 c 0,9.0869 -7.392974,16.479874 -16.479874,16.479874 -9.086903,0 -16.479877,-7.392974 -16.479877,-16.479874 0,-8.440634 6.379046,-15.418388 14.569063,-16.368568 V 7.7744617 H 64.33084 v -3.949463 h 8.657518 V 7.7741246 H 70.558102 V 9.874838 c 1.831884,0.227004 3.571346,0.755555 5.16712,1.534722 l 1.387321,-2.200555 3.340634,2.105773 -1.411945,2.239344 C 82.679703,16.579718 85,21.138346 85,26.228902 Z m -3.94609,0 c 0,-6.910972 -5.622478,-12.533787 -12.533784,-12.533787 -6.911309,0 -12.533787,5.622478 -12.533787,12.533787 0,6.911305 5.622478,12.533784 12.533787,12.533784 6.911306,0 12.533784,-5.622816 12.533784,-12.533784 z M 68.583876,15.976286 V 26.15267 H 78.760262 C 78.69988,20.551779 74.192524,16.002931 68.583876,15.976286 Z"
   id="path13619"
   style="fill:#5d78ff;fill-opacity:1;stroke-width:0.337301" />
</svg>
